<?xml version="1.0" encoding="utf-8"?>
<!-- Generator: Adobe Illustrator 23.0.3, SVG Export Plug-In . SVG Version: 6.00 Build 0)  -->
<svg version="1.1" id="Layer_1" xmlns="http://www.w3.org/2000/svg" xmlns:xlink="http://www.w3.org/1999/xlink" x="0px" y="0px"
	 viewBox="0 0 1000 1000" style="enable-background:new 0 0 1000 1000;" xml:space="preserve">
<style type="text/css">
	.st0{fill:#1985A1;}
</style>
<g>
	<path class="st0" d="M493.3,747.1c2.4,2.9,5.3,4.4,8.3,4.4c5.1,0,10-2.2,14.6-6.6c13.4-10.9,29.2-30.4,47.4-58.8l15.3,8.8
		c-44.2,76.8-91.4,115.5-141,115.5c-19,0-34-5.3-45.2-16s-16.8-24.3-16.8-40.6c0-10.9,2.4-24.5,7.5-41.3l61-209.5
		c5.8-19.9,8.8-35,8.8-45.2c0-6.6-2.9-12.4-8.5-17.5s-13.1-7.5-22.6-7.5c-4.6,0-10,0.2-15.8,0.5l5.3-17.5l148.5-24.1h26l-89.9,311.4
		c-4.6,17.7-7,29.7-7,35.5C489.4,741.5,490.9,744.2,493.3,747.1z"/>
	<path class="st0" d="M604.9,300.1c-12.6,12.4-28,18.7-45.7,18.7c-17.5,0-32.3-6.3-45-18.7c-12.4-12.6-18.7-27.7-18.7-45.5
		s6.1-33.1,18.5-45.7c12.4-12.6,27.5-19,45.2-19c18.2,0,33.5,6.3,45.9,19c12.4,12.6,18.7,28,18.7,45.7
		C624.1,272.4,617.5,287.4,604.9,300.1z"/>
</g>
</svg>
