<?xml version="1.0" encoding="utf-8"?>
<!-- Generator: Adobe Illustrator 23.0.3, SVG Export Plug-In . SVG Version: 6.00 Build 0)  -->
<svg version="1.1" id="Layer_1" xmlns="http://www.w3.org/2000/svg" xmlns:xlink="http://www.w3.org/1999/xlink" x="0px" y="0px"
	 viewBox="0 0 24 24" style="enable-background:new 0 0 24 24;" xml:space="preserve">
<style type="text/css">
	.st0{fill:#1985A1;}
</style>
<path class="st0" d="M2,2v2h2.3l2.6,7.8l-1.5,2h0c-0.5,0.6-0.5,1.5-0.2,2.1S6.2,17,7,17h13v-2H7c0,0,0,0,0,0l1.5-2h9.4
	c0.4,0,0.8-0.2,0.9-0.6l3.1-7C22.2,4.7,21.7,4,21,4h-0.6l-3.1,7H8.7L5.9,2.7L5.7,2H5H2z M12,2v4h-2l3,4l3-4h-2V2H12z M7,18
	c-1.1,0-2,0.9-2,2s0.9,2,2,2s2-0.9,2-2S8.1,18,7,18z M18,18c-1.1,0-2,0.9-2,2s0.9,2,2,2s2-0.9,2-2S19.1,18,18,18z"/>
</svg>
