<?xml version="1.0" encoding="utf-8"?>
<!-- Generator: Adobe Illustrator 23.0.3, SVG Export Plug-In . SVG Version: 6.00 Build 0)  -->
<svg version="1.1" id="Capa_1" xmlns="http://www.w3.org/2000/svg" xmlns:xlink="http://www.w3.org/1999/xlink" x="0px" y="0px"
	 viewBox="0 0 424.1 424.1" style="enable-background:new 0 0 424.1 424.1;" xml:space="preserve">
<style type="text/css">
	.st0{fill:#1985A1;}
</style>
<g>
	<g>
		<g>
			<path class="st0" d="M72.9,412.9c-10.5,0-19.1-8.6-19.1-19.1V253.3l-45.7-0.1c-7.6,0-14.5-4.6-17.6-11.6
				c-3.1-7.2-1.5-15.4,4.1-21.1L198.4,16.6l0.1-0.1c3.7-3.5,8.4-5.4,13.4-5.4c1,0,2,0.1,2.9,0.2c5.2,0.9,9.6,3.7,12.6,7.8l30.2,30.2
				c3.3-5.9,9.5-9.9,16.7-9.9h47.8c10.5,0,19.1,8.6,19.1,19.1v74.6l88.2,88.2c5.4,5.4,7.1,13.5,4.3,20.6l-0.1,0.2l-0.1,0.2
				c-3.1,7.1-10,11.6-17.6,11.6l-45.6-0.1v140c0,10.5-8.6,19-19.1,19H72.9z M332,374.7v-140c0-4.9,1.9-9.6,5.4-13.3l0.2-0.3
				c3.6-3.6,8.5-5.6,13.5-5.6l18.5,0l-61.1-61.1c-3.6-3.6-5.6-8.5-5.6-13.5V77.6h-9.5v15.6c0,7.7-4.7,14.8-11.8,17.7
				c-2.3,1-4.8,1.5-7.3,1.5c-5.1,0-9.9-2-13.6-5.7l-49.2-49.2L54.2,215l18.7,0c10.5,0,19.1,8.6,19.1,19.1v140.6H332z"/>
		</g>
	</g>
</g>
</svg>
