<?xml version="1.0" encoding="utf-8"?>
<!-- Generator: Adobe Illustrator 23.0.3, SVG Export Plug-In . SVG Version: 6.00 Build 0)  -->
<svg version="1.1" id="Layer_1" xmlns="http://www.w3.org/2000/svg" xmlns:xlink="http://www.w3.org/1999/xlink" x="0px" y="0px"
	 viewBox="0 0 1000 1000" style="enable-background:new 0 0 1000 1000;" xml:space="preserve">
<style type="text/css">
	.st0{fill:#1985A1;}
</style>
<g>
	<path class="st0" d="M276.6,312.6h201.8c11.9,0,21.6-9.7,21.6-21.6s-9.7-21.6-21.6-21.6H276.6c-11.9,0-21.6,9.7-21.6,21.6
		C255,303,264.7,312.6,276.6,312.6z M255,507.2c0,11.9,9.7,21.6,21.6,21.6H709c11.9,0,21.6-9.7,21.6-21.6s-9.7-21.6-21.6-21.6H276.6
		C264.7,485.6,255,495.3,255,507.2z M672.9,24.4h-43.2V10l0,0v14.4H154.1c-31.8,0-57.6,25.8-57.6,57.6v850.3
		c0,31.8,25.8,57.6,57.6,57.6h691.8c31.8,0,57.6-25.8,57.6-57.6V269.4l0,0L672.9,24.4z M672.9,82.1l172.9,187.4h-144
		c-15.9,0-28.8-12.9-28.8-28.8L672.9,82.1L672.9,82.1z M845.9,903.5c0,15.9-12.9,28.8-28.8,28.8H182.9c-15.9,0-28.8-12.9-28.8-28.8
		V110.9c0-15.9,12.9-28.8,28.8-28.8h446.8V255c0,31.8,25.8,57.6,57.6,57.6h158.5v590.9H845.9z M709,716.2H276.6
		c-11.9,0-21.6,9.7-21.6,21.6c0,11.9,9.7,21.6,21.6,21.6H709c11.9,0,21.6-9.7,21.6-21.6S720.9,716.2,709,716.2z"/>
</g>
</svg>
